<svg width="1343" height="1067" viewBox="0 0 1343 1067" fill="none" xmlns="http://www.w3.org/2000/svg">
<path d="M0 1066.16H1327.5C1383.74 1053.44 1279.29 154.544 1058.5 0.160003H355.5C241.997 -10.1061 16.6878 474.997 0 1066.16Z" fill="url(#paint0_linear_21_15)"/>
<path d="M87.5 983C105.115 633.47 162.016 457.755 351 182L378 340L490 147L515 259L554.5 182L594 298.5L646 147L716.5 371L737 128L807.5 290L834.5 165.5L901 356.5V147L994.5 340V128C1194.19 453.263 1296.97 636.598 1297 983C1256.53 855.87 1214.99 787.422 1100 671.5C1158.91 804.689 1175.71 872.083 1185 983C1123.82 857.224 1079.56 810.704 994.5 742.5C1052.75 864.89 1056.18 916.412 1019 983C972.679 880.624 937.99 840.057 870 779.5C908.108 880.863 908.961 925.909 870 983L768 779.5L716.5 999.5L585.5 696.5L515 999.5C479.602 922.224 468.929 873.362 461 779.5L378 999.5L351 808.5L262 983C273.666 868.362 285.418 805.961 311.5 696.5L87.5 983Z" fill="#160F17"/>
<ellipse cx="453" cy="57.16" rx="40" ry="35" transform="rotate(-20 453 57.16)" fill="#160F17"/>
<ellipse cx="464.924" cy="65.0958" rx="20" ry="15" transform="rotate(-20 464.924 65.0958)" fill="#A8A1A8"/>
<ellipse cx="40" cy="35" rx="40" ry="35" transform="matrix(-0.939693 -0.34202 -0.34202 0.939693 924.117 38.5216)" fill="#160F17"/>
<ellipse cx="20" cy="15" rx="20" ry="15" transform="matrix(-0.939693 -0.34202 -0.34202 0.939693 885.849 57.8408)" fill="#A8A1A8"/>
<defs>
<linearGradient id="paint0_linear_21_15" x1="671.255" y1="0" x2="671.255" y2="1066.16" gradientUnits="userSpaceOnUse">
<stop stop-color="#A8A1A8"/>
<stop offset="1" stop-color="#4F4150"/>
</linearGradient>
</defs>
</svg>
