<svg width="256" height="223" viewBox="0 0 256 223" fill="none" xmlns="http://www.w3.org/2000/svg">
<path d="M212.263 222.503H225.263C229.844 221.422 231.655 219.834 230.263 211.003C236.134 210.685 238.856 208.753 242.763 202.503C251.104 203.588 252.743 203.122 256.263 202.503V184.503C251.42 187.165 248.552 187.707 242.763 184.503C239.5 190.109 236.449 190.491 230.263 189.503C229.257 197.57 227.152 200.962 217.263 202.503C220.465 211.323 220.017 215.829 212.263 222.503ZM212.263 222.503H198.763M198.763 222.503C206.127 212.938 207.34 209.533 205.263 197.503C216.198 193.536 219.978 189.008 225.263 179.503C232.714 179.769 234.304 178.442 235.263 175.003C244.311 177.731 249.122 178.417 256.263 175.003V155.503C249.952 161.283 245.217 162.468 235.263 162.003C230.004 166.831 226.462 168.575 217.263 167.003C207.067 177.595 200.516 182.93 184.763 189.503C179.057 204.889 174.182 211.837 163.763 222.503M198.763 222.503H163.763M163.763 222.503H143.263M143.263 222.503C154.675 209.594 158.868 199.842 163.763 179.503C187.074 171.6 193.349 164.482 198.763 149.503C211.216 154.69 216.996 154.605 225.263 149.503C239.576 148.715 246.676 146.967 256.263 139.503V109.503C242.951 117.908 234.507 119.814 217.263 117.003C209.174 126.284 203.765 130.838 184.763 132.003C171.969 149.162 163.627 157.587 143.263 167.003C135.532 192.268 130.243 204.894 117.763 222.503M143.263 222.503H117.763M117.763 222.503H81.7632M81.7632 222.503C101.971 201.968 109.576 187.152 121.763 159.503C144.769 145.974 154.234 136.215 168.263 117.003C188.106 114.591 197.947 110.723 212.263 97.5029C230.583 98.9961 240.335 98.0715 256.263 91.5029V77.5029C236.314 83.1214 225.142 84.5539 205.263 83.0029C185.629 93.2089 174.291 96.6774 153.263 97.5029C137.239 123.414 125.359 135.254 96.7632 149.503C85.5093 180.071 77.4132 196.467 55.2632 222.503M81.7632 222.503H55.2632M55.2632 222.503H29.5132M29.5132 222.503H3.76318C30.3122 197.34 42.9372 179.66 55.2632 132.003C81.9873 108.981 94.1651 92.6685 106.763 52.5029C144.936 40.238 157.727 28.9074 177.263 7.00293C204.965 28.4946 222.544 32.1699 255.263 33.1675M29.5132 222.503C59.822 195.413 65.3061 175.45 74.2632 139.503C98.7447 126.764 110.937 113.561 128.263 72.5029C156.502 61.9604 167.777 52.5891 184.763 33.5029C210.497 53.3798 226.575 55.1185 256.263 52.5029V33.5029L255.263 33.1675M29.5132 123.003L256.263 222.503M256.263 222.503L100.763 42.5029M256.263 222.503L177.263 0.50293M256.263 222.503L255.263 33.1675" stroke="#A8A1A8" stroke-opacity="0.7" stroke-width="3"/>
</svg>
